<svg width="193" height="120" viewBox="0 0 193 120" fill="none" xmlns="http://www.w3.org/2000/svg">
<g clip-path="url(#clip0_505_30)">
<path d="M181.212 10.5442C173.341 3.50258 161.117 0 144.614 0C139.79 0 134.639 0.291882 129.162 0.875646C123.685 1.45941 119.079 2.29857 115.27 3.4661C113.094 4.23229 111.426 5.18091 110.229 6.34843C109.032 7.47948 108.415 9.23077 108.415 11.5293V62.3533H84.6211V11.4929C84.6211 9.19428 84.0045 7.47948 82.8075 6.31195C81.6106 5.14442 79.9058 4.1958 77.7658 3.42961C73.9573 2.26209 69.3146 1.42292 63.8376 0.839161C58.3606 0.291882 53.2464 0 48.386 0C31.8825 0 19.6954 3.50258 11.8245 10.5442C3.95358 17.5859 0 27.0356 0 38.9298C0 46.993 1.7773 53.9617 5.33189 59.9088C8.88649 65.8559 14.1458 70.453 21.1462 73.7002C28.1466 76.9474 36.8517 78.5892 47.2616 78.5892H64.5993V118.468C65.5061 118.723 66.7756 119.051 68.4078 119.416C70.0763 119.781 71.8536 120 73.7397 120C77.5482 120 80.3048 119.27 82.0459 117.811C83.7506 116.351 84.6211 113.943 84.6211 110.623V78.6257V78.5163H108.415V78.6257V110.623C108.415 113.943 109.286 116.351 110.99 117.811C112.695 119.27 115.452 120 119.297 120C121.219 120 122.996 119.818 124.628 119.416C126.261 119.051 127.566 118.723 128.437 118.468V78.5892H145.775C156.185 78.5892 164.89 76.9474 171.89 73.7002C178.89 70.453 184.15 65.8559 187.704 59.9088C191.259 53.9617 193.036 46.9565 193.036 38.9298C193 27.0356 189.083 17.5859 181.212 10.5442ZM27.7113 56.4427C22.7059 52.5388 20.1669 46.7741 20.1669 39.1122C20.1669 31.3043 22.5608 25.6126 27.3123 21.9641C32.0639 18.3156 38.9555 16.4913 47.987 16.4913C51.0338 16.4913 53.9718 16.6373 56.8372 16.8927C59.7027 17.1481 62.3505 17.4764 64.7444 17.8413V62.3168H48.6036C39.7172 62.2803 32.7531 60.3466 27.7113 56.4427ZM165.289 56.4427C160.283 60.3466 153.319 62.2803 144.433 62.2803H128.219V17.8413C130.613 17.4764 133.261 17.1481 136.126 16.8927C138.992 16.6373 141.93 16.4913 144.977 16.4913C154.008 16.4913 160.9 18.3156 165.651 21.9641C170.403 25.6126 172.797 31.3408 172.797 39.1122C172.833 46.7741 170.294 52.5388 165.289 56.4427Z" fill="#0F2507"/>
</g>
<defs>
<clipPath id="clip0_505_30">
<rect width="193" height="120" fill="white"/>
</clipPath>
</defs>
</svg>
