<svg width="199" height="47" viewBox="0 0 199 47" fill="none" xmlns="http://www.w3.org/2000/svg">
<g clip-path="url(#clip0_554_12)">
<path d="M33.7181 23.2466C32.4053 19.3922 31.1193 15.6844 29.8467 12.1101C28.5874 8.53576 27.3818 5.36152 26.2431 2.60074C25.9484 1.66714 25.2116 1.00028 24.0461 0.60017C22.894 0.200057 21.608 0 20.2282 0C19.1833 0 18.1518 0.133371 17.1069 0.413451C16.062 0.680193 15.2984 0.946935 14.8028 1.187C13.999 3.20091 13.1014 5.57491 12.0833 8.29569C11.0652 11.0165 10.0069 13.8306 8.92184 16.7781C7.83676 19.7123 6.76506 22.6197 5.72016 25.4739C4.67526 28.3414 3.73753 30.9955 2.89357 33.4361C2.04961 35.8768 1.35301 37.9441 0.817166 39.6112C0.616224 40.2514 0.428677 40.8382 0.254527 41.3451C0.080377 41.8652 0 42.372 0 42.8655C0 43.9458 0.401885 44.7594 1.19226 45.3062C1.98263 45.853 2.97395 46.1197 4.16621 46.1197C4.86281 46.1197 5.43884 46.0531 5.90771 45.933C6.37657 45.813 6.83204 45.6796 7.28751 45.5196C7.48846 44.7327 7.78317 43.7724 8.18506 42.6388C8.58694 41.5051 8.98883 40.2781 9.4175 38.9711C9.83278 37.664 10.2481 36.397 10.65 35.1566C10.7705 34.7965 10.8777 34.4498 10.9849 34.1163H29.3376L32.1374 42.7721C32.5393 43.9058 33.0349 44.7327 33.6244 45.2528C34.2138 45.773 35.1917 46.0264 36.5179 46.0264C37.4155 46.0264 38.2327 45.8797 38.9694 45.5863C39.7062 45.2928 40.2823 44.8927 40.6842 44.3993C39.7464 41.4384 38.6747 38.1308 37.4825 34.4764C36.2902 30.8487 35.031 27.0877 33.7181 23.2466ZM15.0171 21.286C15.9548 18.5519 16.8926 15.9112 17.8035 13.3638C18.7144 10.8164 19.5048 8.5891 20.1478 6.66856H20.5229C21.0722 8.29569 21.742 10.2829 22.5323 12.6302C23.3227 14.9776 24.1801 17.5116 25.091 20.2591C25.9484 22.8065 26.7789 25.3539 27.6095 27.9146H12.7264C13.4631 25.8073 14.2133 23.6067 15.0171 21.286Z" fill="#0F2507"/>
<path d="M51.1198 0.0267334C50.3696 0.0267334 49.6596 0.093419 48.9898 0.213453C48.32 0.333487 47.8109 0.453521 47.4626 0.546881V17.2049V25.2339V42.4788C47.4626 43.7725 47.7976 44.6927 48.4674 45.2662C49.1372 45.8397 50.1955 46.1198 51.6423 46.1198C52.3924 46.1198 53.1024 46.0398 53.7722 45.8931C54.442 45.7464 54.9243 45.6263 55.2324 45.5196V25.2339V17.2049V3.60108C55.2324 2.26737 54.9109 1.33377 54.2679 0.813623C53.6115 0.293476 52.5666 0.0267334 51.1198 0.0267334Z" fill="#0F2507"/>
<path d="M192.047 24.1268C190.735 20.2724 189.449 16.5647 188.176 12.9903C186.917 9.41597 185.711 6.24174 184.572 3.48096C184.278 2.54736 183.541 1.8805 182.375 1.48039C181.21 1.08027 179.937 0.893555 178.544 0.893555C177.499 0.893555 176.468 1.02693 175.423 1.30701C174.378 1.57375 173.614 1.84049 173.119 2.08056C172.328 4.1078 171.417 6.46847 170.399 9.18924C169.381 11.91 168.323 14.7241 167.238 17.6716C166.153 20.6058 165.081 23.5133 164.036 26.3674C162.991 29.2349 162.053 31.889 161.209 34.3297C160.366 36.7704 159.669 38.8377 159.133 40.5048C158.932 41.145 158.745 41.7318 158.57 42.2386C158.396 42.7588 158.316 43.2656 158.316 43.759C158.316 44.8394 158.718 45.6529 159.508 46.1997C160.299 46.7466 161.29 47.0133 162.482 47.0133C163.179 47.0133 163.755 46.9466 164.224 46.8266C164.692 46.7065 165.148 46.5732 165.603 46.4131C165.804 45.6262 166.099 44.666 166.501 43.5323C166.903 42.3987 167.305 41.1716 167.733 39.8646C168.149 38.5576 168.564 37.2905 168.966 36.0502C169.086 35.6901 169.194 35.3433 169.301 35.0099H187.654L190.453 43.6657C190.855 44.7993 191.351 45.6262 191.94 46.1464C192.53 46.6665 193.508 46.9199 194.834 46.9199C195.731 46.9199 196.549 46.7732 197.285 46.4798C198.022 46.1864 198.598 45.7863 199 45.2928C198.062 42.332 196.991 39.0244 195.798 35.37C194.606 31.729 193.36 27.9812 192.047 24.1268ZM173.346 22.1663C174.284 19.4321 175.222 16.7914 176.133 14.244C177.044 11.6966 177.834 9.46932 178.477 7.54878H178.852C179.401 9.1759 180.071 11.1631 180.862 13.5105C181.652 15.8578 182.509 18.3919 183.42 21.1393C184.278 23.6867 185.108 26.2341 185.939 28.7948H171.056C171.779 26.7009 172.543 24.4869 173.346 22.1663Z" fill="#0F2507"/>
<path d="M147.425 0.0133057C146.675 0.0133057 145.965 0.0799912 145.295 0.200025C144.625 0.320059 144.116 0.440093 143.768 0.533453V17.1915V25.2205V42.4653C143.768 43.759 144.102 44.6793 144.772 45.2528C145.442 45.8263 146.5 46.1064 147.947 46.1064C148.697 46.1064 149.407 46.0264 150.077 45.8796C150.747 45.7329 151.229 45.6129 151.537 45.5062V25.2205V17.1915V3.58765C151.537 2.25394 151.216 1.32034 150.573 0.800196C149.916 0.280048 148.872 0.0133057 147.425 0.0133057Z" fill="#0F2507"/>
<path d="M132.381 4.49467C129.326 1.78723 124.598 0.440186 118.181 0.440186C116.305 0.440186 114.309 0.546883 112.193 0.773613C110.076 1.00034 108.268 1.32044 106.794 1.7739C105.95 2.06731 105.307 2.44075 104.838 2.88088C104.369 3.321 104.142 3.98786 104.142 4.86811V24.407H94.8984V4.86811C94.8984 3.98786 94.6706 3.321 94.2018 2.88088C93.7329 2.44075 93.0765 2.06731 92.2459 1.7739C90.7723 1.33377 88.9639 1.00034 86.8473 0.773613C84.7307 0.546883 82.7346 0.440186 80.8592 0.440186C74.4424 0.440186 69.7136 1.78723 66.6458 4.49467C63.5513 7.2021 62.0242 10.8298 62.0242 15.4044C62.0242 18.4986 62.7208 21.1927 64.1006 23.4734C65.4804 25.754 67.53 27.5279 70.2494 28.7816C72.9688 30.0352 76.3447 30.6621 80.3903 30.6621H87.1286V45.9864C87.4769 46.0798 87.9725 46.2132 88.6022 46.3599C89.2452 46.5066 89.9284 46.5866 90.6786 46.5866C92.1521 46.5866 93.2372 46.3065 93.8936 45.733C94.5635 45.1729 94.8984 44.2526 94.8984 42.9723V30.6754V30.6354H104.142V30.6754V42.9456C104.142 44.2259 104.477 45.1462 105.146 45.7064C105.816 46.2665 106.888 46.5466 108.362 46.5466C109.098 46.5466 109.795 46.4666 110.438 46.3199C111.081 46.1732 111.577 46.0531 111.911 45.9464V30.6488H118.65C122.695 30.6488 126.071 30.0219 128.791 28.7682C131.51 27.5145 133.546 25.7407 134.939 23.46C136.319 21.1794 137.016 18.4853 137.016 15.3911C136.976 10.8298 135.449 7.2021 132.381 4.49467ZM72.7947 22.1397C70.8522 20.6459 69.8743 18.4186 69.8743 15.4711C69.8743 12.4703 70.7987 10.283 72.6473 8.88258C74.496 7.48218 77.1752 6.78865 80.6716 6.78865C81.8505 6.78865 83.0026 6.842 84.1144 6.93536C85.2263 7.02872 86.2444 7.16209 87.1822 7.3088V24.407H80.886C77.4432 24.3803 74.7371 23.6334 72.7947 22.1397ZM126.205 22.1397C124.249 23.6334 121.557 24.3803 118.101 24.3803H111.818V7.29546C112.755 7.14876 113.774 7.02872 114.885 6.92202C115.997 6.82866 117.149 6.77532 118.328 6.77532C121.825 6.77532 124.504 7.48218 126.353 8.86924C128.201 10.2696 129.126 12.4703 129.126 15.4578C129.126 18.4186 128.161 20.6459 126.205 22.1397Z" fill="#0F2507"/>
</g>
<defs>
<clipPath id="clip0_554_12">
<rect width="199" height="47" fill="white"/>
</clipPath>
</defs>
</svg>
